<svg xmlns="http://www.w3.org/2000/svg" version="1.1" viewBox="317.322 51.12303664921466 252.297 215.7565445026178" style="max-height: 500px" width="252.297" height="215.7565445026178">
<path transform="translate(0,0)" fill="#FEFEFE" d="M0 0 C286.11 0 572.22 0 867 0 C867 109.23 867 218.46 867 331 C580.89 331 294.78 331 0 331 C0 221.77 0 112.54 0 0 Z"/>
<path transform="translate(554,63)" fill="#040404" d="M0 0 C0.33 0 0.66 0 1 0 C1 16.5 1 33 1 50 C-2 47 -2 47 -2.875 44.625 C-4.35395735 41.17409952 -6.10275106 39.38218246 -9 37 C-14.39026561 35.05784635 -19.22698135 34.69644137 -24.87280273 34.68115234 C-25.73213913 34.67110672 -26.59147552 34.6610611 -27.47685242 34.65071106 C-30.29575986 34.62000781 -33.1145729 34.60287986 -35.93359375 34.5859375 C-37.89657903 34.5672155 -39.85955635 34.54764132 -41.82252502 34.5272522 C-46.97300513 34.47603407 -52.1235113 34.43635319 -57.27410889 34.39910889 C-63.46255894 34.35194537 -69.65088071 34.29039188 -75.83922577 34.23126221 C-85.22609844 34.14317582 -94.61294809 34.07332127 -104 34 C-104 47.86 -104 61.72 -104 76 C-92.79576862 75.87997448 -92.79576862 75.87997448 -81.59179688 75.7421875 C-77.01851666 75.68200764 -72.44527668 75.62385583 -67.87182617 75.578125 C-64.18234167 75.54110194 -60.49308096 75.49469726 -56.80378914 75.44193649 C-55.40011607 75.42348255 -53.99639519 75.40834178 -52.59264946 75.39665604 C-50.61822853 75.37963922 -48.64393444 75.3494753 -46.66967773 75.31884766 C-45.54826889 75.30552399 -44.42686005 75.29220032 -43.27146912 75.2784729 C-38.78269722 74.89638116 -34.48832213 74.31043503 -31.0390625 71.2734375 C-30.57242188 70.64695312 -30.10578125 70.02046875 -29.625 69.375 C-28.76028059 68.24207885 -27.88814497 67.11465174 -27 66 C-26.67 66 -26.34 66 -26 66 C-26 82.17 -26 98.34 -26 115 C-26.66 115 -27.32 115 -28 115 C-29.4375 113.28515625 -29.4375 113.28515625 -31 111.0625 C-33.04816804 108.01367363 -33.04816804 108.01367363 -36 106 C-37.70363822 105.77377919 -39.41328701 105.59111527 -41.125 105.4375 C-42.49011719 105.31181641 -42.49011719 105.31181641 -43.8828125 105.18359375 C-44.58148438 105.12300781 -45.28015625 105.06242187 -46 105 C-45.98952637 105.7748877 -45.97905273 106.54977539 -45.96826172 107.34814453 C-45.63455243 135.76412405 -45.63455243 135.76412405 -48 147 C-48.99 147 -49.98 147 -51 147 C-51.0825 147.825 -51.165 148.65 -51.25 149.5 C-53.43400621 159.692029 -61.35122496 171.04499753 -69.69628906 177.26416016 C-73.3847819 179.5312911 -77.58376081 182 -82 182 C-82.33 182.99 -82.66 183.98 -83 185 C-91.23334221 188.87646293 -101.07420914 188.67522216 -110 189 C-110 189.66 -110 190.32 -110 191 C-148.94 191 -187.88 191 -228 191 C-228 190.34 -228 189.68 -228 189 C-227.38511719 188.69707031 -226.77023437 188.39414063 -226.13671875 188.08203125 C-219.75420488 184.86701247 -219.75420488 184.86701247 -216 179 C-214.0985294 172.65626182 -213.70842975 166.92161622 -213.7253418 160.32055664 C-213.72023087 159.28045944 -213.71511993 158.24036224 -213.70985413 157.16874695 C-213.69601576 153.7491573 -213.69691047 150.32977048 -213.69921875 146.91015625 C-213.69532892 144.52176336 -213.69099366 142.13337117 -213.68623352 139.74497986 C-213.67878387 134.74606073 -213.67905371 129.74721226 -213.68432617 124.74829102 C-213.69012181 118.35509463 -213.67318112 111.96218786 -213.6499815 105.56903934 C-213.63522236 100.6386904 -213.6343754 95.70841087 -213.63749123 90.77804375 C-213.63697921 88.42142602 -213.63176393 86.06480429 -213.62167931 83.70820808 C-213.60928896 80.40822853 -213.61612237 77.10880905 -213.62768555 73.80883789 C-213.62004181 72.84388397 -213.61239807 71.87893005 -213.60452271 70.88473511 C-213.65809716 63.93778621 -214.45695694 57.22118788 -218.875 51.625 C-221.03904751 49.90342885 -221.03904751 49.90342885 -223.75 48.375 C-224.4925 47.92125 -225.235 47.4675 -226 47 C-226 46.34 -226 45.68 -226 45 C-197.95 45 -169.9 45 -141 45 C-139.94362173 22.82396928 -139.94362173 22.82396928 -147 13 C-150.61596508 10.50158091 -150.61596508 10.50158091 -154 9 C-154 8.34 -154 7.68 -154 7 C-153.29284914 6.99668985 -152.58569828 6.99337971 -151.85711861 6.98996925 C-134.62069919 6.90861588 -117.38437079 6.81648336 -100.1480732 6.71247292 C-91.81260116 6.66243122 -83.47713855 6.61598759 -75.14160156 6.578125 C-67.87317032 6.54510029 -60.60481404 6.50521179 -53.33646572 6.45720994 C-49.49082533 6.43204873 -45.64523401 6.41023731 -41.79953384 6.39665604 C-38.17322739 6.38374083 -34.54709007 6.36158658 -30.92087746 6.33261681 C-28.96905926 6.31935088 -27.0171833 6.31563791 -25.06532288 6.31230164 C-17.04881441 6.23667323 -9.62904049 5.5430135 -2 3 C-1.34 2.01 -0.68 1.02 0 0 Z"/>
<path transform="translate(381.418212890625,133.886474609375)" fill="#FCFCFC" d="M0 0 C1.51815699 0.00015911 3.0363194 0.00585313 4.55444336 0.01586914 C5.35208603 0.01728409 6.1497287 0.01869904 6.97154236 0.02015686 C9.52916146 0.02577223 12.08669429 0.03832727 14.64428711 0.05102539 C16.37410356 0.05603841 18.10392137 0.06060166 19.83374023 0.06469727 C24.08312264 0.07574664 28.33244023 0.09302153 32.58178711 0.11352539 C32.6515814 8.04185112 32.70474659 15.97004649 32.73722363 23.89860439 C32.75281825 27.58095155 32.77394144 31.26308709 32.80810547 34.9453125 C32.84092252 38.50501115 32.85868667 42.06450742 32.86641884 45.62434578 C32.87458421 47.62995713 32.89796728 49.63548812 32.92167664 51.64097595 C32.92316536 59.79181394 32.3170919 66.62762554 28.01928711 73.67602539 C27.54491211 74.15040039 27.07053711 74.62477539 26.58178711 75.11352539 C25.92178711 75.11352539 25.26178711 75.11352539 24.58178711 75.11352539 C24.25178711 76.10352539 23.92178711 77.09352539 23.58178711 78.11352539 C21.92974255 78.81564433 20.26254942 79.48323952 18.58178711 80.11352539 C18.25178711 80.77352539 17.92178711 81.43352539 17.58178711 82.11352539 C36.72178711 82.11352539 55.86178711 82.11352539 75.58178711 82.11352539 C67.95739817 89.73791433 59.74442721 92.17373544 49.16577148 92.34057617 C46.6690043 92.34026203 44.17222199 92.32911282 41.67553711 92.30883789 C40.34175836 92.30510083 39.00797683 92.30225714 37.67419434 92.30026245 C34.1889671 92.29268045 30.70391051 92.27307975 27.21875 92.25085449 C23.65228584 92.23027795 20.08579371 92.22123566 16.51928711 92.21118164 C9.54005101 92.18982784 2.56092729 92.15575878 -4.41821289 92.11352539 C-4.44133491 80.26587366 -4.45912726 68.41822725 -4.47002506 56.57055759 C-4.4752542 51.06981678 -4.4823524 45.56909134 -4.49365234 40.06835938 C-4.50448014 34.76455979 -4.51048949 29.46077504 -4.51309013 24.15696526 C-4.51494458 22.12866927 -4.51856556 20.10037413 -4.52394295 18.07208443 C-4.53115195 15.24156026 -4.53220389 12.41109821 -4.53173828 9.58056641 C-4.53533356 8.73324448 -4.53892883 7.88592255 -4.54263306 7.01292419 C-4.53033474 0.15046109 -4.53033474 0.15046109 0 0 Z"/>
<path transform="translate(450,167)" fill="#F2F2F2" d="M0 0 C6.93 0 13.86 0 21 0 C24.7042133 11.1126399 23.16137054 27.55642415 18 38 C16.4453125 39.6953125 16.4453125 39.6953125 15 41 C14.566875 41.721875 14.13375 42.44375 13.6875 43.1875 C12 45 12 45 9.125 45.75 C5.47715308 44.87451674 5.14315696 44.28835401 3.1875 41.25 C0.16848454 35.97405065 -0.14190279 31.40176634 -0.09765625 25.390625 C-0.0962413 24.66381531 -0.09482635 23.93700562 -0.09336853 23.18817139 C-0.08778792 20.87540506 -0.07523904 18.56273688 -0.0625 16.25 C-0.05748249 14.67838682 -0.05292002 13.10677211 -0.04882812 11.53515625 C-0.03867733 7.69003628 -0.01909832 3.84512752 0 0 Z"/>
<path transform="translate(552,64)" fill="#C4C4C4" d="M0 0 C0 0.99 0 1.98 0 3 C-8.31910018 6.89957821 -17.695662 6.13890553 -26.66796875 6.11352539 C-28.03858946 6.1132429 -29.40921031 6.11340246 -30.77983093 6.1139679 C-34.47966586 6.11425346 -38.17946801 6.10839583 -41.87929535 6.10139394 C-45.75367565 6.09512013 -49.62805681 6.09455342 -53.50244141 6.09336853 C-60.82974582 6.09026705 -68.15703522 6.08206968 -75.48433304 6.07201904 C-83.83018599 6.06082107 -92.17603967 6.05533818 -100.52189827 6.05032361 C-117.68127418 6.03988603 -134.8406355 6.0223096 -152 6 C-152 6.66 -152 7.32 -152 8 C-153.32 7.67 -154.64 7.34 -156 7 C-155.67 6.01 -155.34 5.02 -155 4 C-154.24370017 3.99761165 -153.48740034 3.99522329 -152.70818233 3.99276257 C-134.29612063 3.93359743 -115.8841928 3.85803762 -97.47227383 3.76428509 C-88.56836061 3.71934117 -79.66448727 3.67992326 -70.76049805 3.65356445 C-62.99875546 3.63057301 -55.2371392 3.59716216 -47.47549683 3.55129844 C-43.36668121 3.52738166 -39.25799059 3.50864278 -35.14910698 3.50238609 C-31.27898104 3.49632822 -27.40917486 3.4763032 -23.5391674 3.44572449 C-22.12146731 3.43695549 -20.70372541 3.43321933 -19.2859993 3.43499184 C-9.23042551 3.49330789 -9.23042551 3.49330789 0 0 Z"/>
<path transform="translate(381.418212890625,133.886474609375)" fill="#8A8A8A" d="M0 0 C1.51815699 0.00015911 3.0363194 0.00585313 4.55444336 0.01586914 C5.35208603 0.01728409 6.1497287 0.01869904 6.97154236 0.02015686 C9.52916146 0.02577223 12.08669429 0.03832727 14.64428711 0.05102539 C16.37410356 0.05603841 18.10392137 0.06060166 19.83374023 0.06469727 C24.08312264 0.07574664 28.33244023 0.09302153 32.58178711 0.11352539 C32.6282468 8.07641147 32.6637253 16.03924036 32.68541145 24.00222874 C32.69582277 27.7002652 32.70993314 31.39820853 32.73266602 35.09619141 C32.7544895 38.66883693 32.76637566 42.24139319 32.7715416 45.81410027 C32.77522036 47.17317038 32.78240389 48.53223594 32.79324722 49.89126778 C32.89366793 63.00584024 32.89366793 63.00584024 30.58178711 69.11352539 C30.25178711 69.11352539 29.92178711 69.11352539 29.58178711 69.11352539 C29.91178711 47.00352539 30.24178711 24.89352539 30.58178711 2.11352539 C19.36178711 2.11352539 8.14178711 2.11352539 -3.41821289 2.11352539 C-3.41821289 31.81352539 -3.41821289 61.51352539 -3.41821289 92.11352539 C-3.74821289 92.11352539 -4.07821289 92.11352539 -4.41821289 92.11352539 C-4.44133491 80.26587366 -4.45912726 68.41822725 -4.47002506 56.57055759 C-4.4752542 51.06981678 -4.4823524 45.56909134 -4.49365234 40.06835938 C-4.50448014 34.76455979 -4.51048949 29.46077504 -4.51309013 24.15696526 C-4.51494458 22.12866927 -4.51856556 20.10037413 -4.52394295 18.07208443 C-4.53115195 15.24156026 -4.53220389 12.41109821 -4.53173828 9.58056641 C-4.53533356 8.73324448 -4.53892883 7.88592255 -4.54263306 7.01292419 C-4.53033474 0.15046109 -4.53033474 0.15046109 0 0 Z"/>
<path transform="translate(333,248)" fill="#4A4A4A" d="M0 0 C0.66 0.33 1.32 0.66 2 1 C1.67 1.66 1.34 2.32 1 3 C55.45 3.495 55.45 3.495 111 4 C111 4.66 111 5.32 111 6 C72.06 6 33.12 6 -7 6 C-7 5.34 -7 4.68 -7 4 C-1.7265625 0.77734375 -1.7265625 0.77734375 0 0 Z"/>
<path transform="translate(410,205)" fill="#4F4F4F" d="M0 0 C0.33 0.66 0.66 1.32 1 2 C-1.31578947 6.31578947 -1.31578947 6.31578947 -3 8 C13.83 8.33 30.66 8.66 48 9 C48 8.34 48 7.68 48 7 C49.98 6.34 51.96 5.68 54 5 C53.34 6.65 52.68 8.3 52 10 C51.34 10 50.68 10 50 10 C49.67 10.99 49.34 11.98 49 13 C46.9375 13.6875 46.9375 13.6875 45 14 C45.33 13.34 45.66 12.68 46 12 C27.19 11.67 8.38 11.34 -11 11 C-10.67 10.01 -10.34 9.02 -10 8 C-8.34795544 7.29788106 -6.68076231 6.63028587 -5 6 C-4.67 5.34 -4.34 4.68 -4 4 C-3.34 4 -2.68 4 -2 4 C-1.34 2.68 -0.68 1.36 0 0 Z"/>
<path transform="translate(555,58)" fill="#B3B3B3" d="M0 0 C0.66 0 1.32 0 2 0 C2 19.47 2 38.94 2 59 C1.01 59 0.02 59 -1 59 C-1.33 57.35 -1.66 55.7 -2 54 C-1.67 54 -1.34 54 -1 54 C-0.97465286 47.23731282 -0.95713431 40.47463789 -0.94506836 33.71191406 C-0.94003843 31.41112816 -0.93321376 29.11034545 -0.92456055 26.80957031 C-0.91243641 23.50324718 -0.90675828 20.1969663 -0.90234375 16.890625 C-0.89718246 15.86132874 -0.89202118 14.83203247 -0.88670349 13.77154541 C-0.88662796 12.81085144 -0.88655243 11.85015747 -0.88647461 10.86035156 C-0.884254 10.01651917 -0.88203339 9.17268677 -0.87974548 8.30328369 C-0.91260878 5.99159349 -0.91260878 5.99159349 -1.63209534 3.82122803 C-1.75350388 3.22022278 -1.87491241 2.61921753 -2 2 C-1.34 1.34 -0.68 0.68 0 0 Z"/>
<path transform="translate(411,82)" fill="#A6A6A6" d="M0 0 C6.14636297 6.14636297 2 17.30773013 2 26 C-26.05 26 -54.1 26 -83 26 C-83 26.66 -83 27.32 -83 28 C-83.99 28 -84.98 28 -86 28 C-85.505 26.515 -85.505 26.515 -85 25 C-56.62 25 -28.24 25 1 25 C0.505 12.625 0.505 12.625 0 0 Z"/>
<path transform="translate(328,108)" fill="#414141" d="M0 0 C28.05 0 56.1 0 85 0 C85 0.33 85 0.66 85 1 C57.94 1 30.88 1 3 1 C3 1.66 3 2.32 3 3 C3.8971875 3.1546875 3.8971875 3.1546875 4.8125 3.3125 C7.28243264 4.08876455 8.32251235 5.07088921 10 7 C9.67 7.66 9.34 8.32 9 9 C8.443125 8.401875 7.88625 7.80375 7.3125 7.1875 C5.06999978 4.90405244 5.06999978 4.90405244 2.25 3.375 C1.5075 2.92125 0.765 2.4675 0 2 C0 1.34 0 0.68 0 0 Z"/>
<path transform="translate(398,213)" fill="#CDCDCD" d="M0 0 C0.66 0.33 1.32 0.66 2 1 C1.67 1.66 1.34 2.32 1 3 C20.14 3 39.28 3 59 3 C57.35 4.65 55.7 6.3 54 8 C53.34 7.67 52.68 7.34 52 7 C52.33 6.34 52.66 5.68 53 5 C35.51 4.67 18.02 4.34 0 4 C0 2.68 0 1.36 0 0 Z"/>
<path transform="translate(555,58)" fill="#BFBFBF" d="M0 0 C0.66 0 1.32 0 2 0 C2 6.6 2 13.2 2 20 C1.67 20 1.34 20 1 20 C1 14.39 1 8.78 1 3 C0.01 3.33 -0.98 3.66 -2 4 C-1.34 2.68 -0.68 1.36 0 0 Z"/>
<path transform="translate(410,205)" fill="#4F4F4F" d="M0 0 C0.33 0.66 0.66 1.32 1 2 C-0.125 4.5625 -0.125 4.5625 -2 7 C-4.6875 7.8125 -4.6875 7.8125 -7 8 C-5.625 6 -5.625 6 -4 4 C-3.34 4 -2.68 4 -2 4 C-1.34 2.68 -0.68 1.36 0 0 Z"/>
</svg>